<svg xmlns="http://www.w3.org/2000/svg" xmlns:xlink="http://www.w3.org/1999/xlink" preserveAspectRatio="xMidYMid" width="39.531" height="36.031" viewBox="0 0 39.531 36.031">
  <defs>
    <style>
      .cls-1 {
        fill: #50c5da;
        fill-rule: evenodd;
      }
    </style>
  </defs>
  <path d="M30.065,6.232 C30.065,9.402 28.587,11.642 26.990,13.829 C26.634,14.321 27.108,14.647 27.522,14.265 C28.587,13.281 30.065,12.024 33.378,12.024 C36.927,12.024 39.530,14.867 39.530,20.331 C39.530,26.235 35.627,30.606 31.249,30.606 C26.990,30.606 22.908,26.998 21.725,24.649 C21.310,23.829 20.956,23.283 20.541,23.283 C20.246,23.283 20.128,23.610 20.128,24.048 C20.128,28.968 22.375,33.574 24.968,34.876 C25.051,34.918 25.741,35.507 24.468,35.759 C23.421,35.969 16.508,36.473 14.253,35.158 C13.962,34.988 14.261,34.621 14.549,34.556 C18.146,33.742 18.886,26.343 18.886,23.502 C18.886,23.064 18.767,22.736 18.413,22.736 C17.998,22.736 17.762,23.120 17.525,23.556 C16.165,26.125 13.030,29.512 8.297,29.512 C3.565,29.512 0.015,24.484 0.015,19.676 C0.015,14.867 2.855,10.932 6.878,10.932 C9.243,10.932 11.729,12.353 13.265,13.228 C13.681,13.446 13.976,13.008 13.562,12.735 C11.018,11.041 10.190,9.073 10.190,6.123 C10.190,4.155 12.320,0.002 19.891,0.002 C27.463,0.002 30.065,2.734 30.065,6.232 Z" class="cls-1"/>
</svg>
